<svg xmlns="http://www.w3.org/2000/svg" width="215" height="57" viewBox="0 0 215 57" fill="none">
<path d="M25.1774 30.515C24.3111 30.966 23.4838 31.5175 22.6863 32.2657C21.9369 33.0183 21.192 33.723 20.5041 34.3362C19.3822 35.4412 18.2648 36.4983 17.1429 37.6033C16.021 38.7083 14.9516 39.7699 13.9257 40.884C12.7947 42.0851 11.6112 43.3296 10.4756 44.5787C9.34005 45.8278 8.2045 47.0769 7.11697 48.3305C6.67832 48.8704 6.19166 49.4057 5.75301 49.9456C5.31436 50.4854 4.87572 51.0253 4.43253 51.6132C4.16519 51.8786 3.88422 52.288 3.45011 52.7799C3.06402 53.2763 2.77851 53.7337 2.58904 54.2002C3.07829 54.1496 3.57663 54.003 4.12754 53.8129C4.63042 53.6182 5.18586 53.3801 5.69329 53.1374C6.20072 52.8947 6.71269 52.604 7.22011 52.3614C7.72754 52.1187 8.18695 51.8715 8.59834 51.6197C9.87145 50.965 11.1446 50.3103 12.4268 49.5595C13.7044 48.8568 14.9866 48.1061 16.2688 47.3553C18.8812 45.8584 21.4501 44.3089 23.9756 42.7068C26.501 41.1047 29.0745 39.5072 31.7486 37.8708C32.0068 37.7014 32.4182 37.4496 32.9873 37.0674C33.6044 36.6898 34.2695 36.3167 34.9826 35.9481C35.6957 35.5796 36.4569 35.2156 37.218 34.8516C37.9746 34.5356 38.6261 34.3065 39.1633 34.2604C39.7486 34.2189 40.1282 34.3033 40.3891 34.6186C40.6499 34.934 40.6434 35.5147 40.3696 36.3609C40.0114 37.5866 39.4566 38.8422 38.7577 40.0841C38.0589 41.3261 37.4606 42.5291 36.8623 43.7321C36.5106 44.3771 36.207 45.0266 35.9033 45.6762C35.5996 46.3257 35.2959 46.9752 35.0403 47.6293C34.917 47.9083 34.7846 48.2834 34.5426 48.7934C34.3005 49.3034 34.2116 49.731 34.2759 50.0762C37.6611 48.6039 40.9775 46.8345 44.1862 44.6672C47.3904 42.548 50.6037 40.3328 53.7346 37.9644C55.4509 36.7218 57.1717 35.4312 58.8491 34.088C60.5264 32.7448 62.2084 31.3536 63.8468 29.9099C64.5346 29.2967 65.2224 28.6835 65.9148 28.0223C66.6026 27.4091 67.2469 26.7434 67.8867 26.1256C68.049 25.9472 68.2592 25.7733 68.4785 25.5034C68.7459 25.238 68.9607 25.0161 69.2325 24.7027C69.4999 24.4373 69.7237 24.1193 69.8951 23.8448C70.1144 23.5749 70.2377 23.2959 70.2604 23.0558C70.1689 22.9987 70.0774 22.9416 69.9859 22.8845C69.8944 22.8274 69.8555 22.7268 69.8256 22.5302C69.8049 22.2376 69.8801 21.954 70.104 21.6361C70.3279 21.3181 70.5861 21.1488 70.8879 21.032C71.2376 20.9197 71.5737 20.9515 71.8962 21.1274C72.1707 21.2987 72.3926 21.5134 72.5094 21.8152C72.7475 22.3706 72.6359 23.0383 72.3277 23.7359C71.9715 24.4289 71.5192 25.1128 70.9183 25.8311C70.322 26.5014 69.6777 27.1671 68.9898 27.7803C68.302 28.3935 67.7673 28.9243 67.3423 29.3201C64.4288 31.9513 61.4764 34.4819 58.3981 36.8068C55.3198 39.1317 52.246 41.4086 49.1333 43.5849C47.5747 44.6971 45.9681 45.8047 44.318 46.8598C42.6678 47.9149 41.0703 48.9265 39.4293 49.8855C39.0179 50.1372 38.5539 50.4325 38.0374 50.7712C37.5209 51.1099 36.9609 51.3961 36.4009 51.6822C35.8409 51.9684 35.29 52.1585 34.7437 52.3006C34.1973 52.4427 33.7126 52.4453 33.2415 52.3038C32.4869 52.0871 32.0385 51.7055 31.91 51.0151C31.7816 50.3247 31.8542 49.5564 32.1372 48.6143C32.4201 47.6721 32.8561 46.6475 33.4018 45.488C33.991 44.381 34.5848 43.226 35.174 42.119C35.7632 41.012 36.3478 39.953 36.8754 38.9856C37.4029 38.0181 37.7728 37.181 38.0284 36.527C37.6261 36.6827 37.1667 36.9299 36.7508 37.2297C36.3348 37.5295 35.928 37.7332 35.6172 37.9461C34.6458 38.484 33.7224 39.0264 32.7991 39.5689C31.8757 40.1113 30.9478 40.7018 30.0199 41.2923C28.0155 42.5076 26.0591 43.7275 24.1553 44.9039C22.2515 46.0803 20.2996 47.2522 18.3478 48.424C16.4485 49.5524 14.4967 50.7243 12.6019 51.8047C10.6592 52.8805 8.72096 53.9083 6.74381 54.8355C6.38952 54.9958 5.93466 55.195 5.27409 55.5201C4.61353 55.8452 3.96205 56.0742 3.31512 56.2553C2.62017 56.4318 2.03488 56.4733 1.45867 56.4188C0.882465 56.3643 0.482108 55.9873 0.291991 55.4364C0.179737 55.0866 0.120043 54.6934 0.208943 54.2658C0.2933 53.8862 0.430217 53.4631 0.610609 53.0926C0.791 52.7221 1.01941 52.3561 1.24782 51.9902C1.52424 51.6287 1.70009 51.3062 1.91942 51.0363C2.47227 50.3135 3.02966 49.5426 3.58251 48.8197C4.18338 48.1014 4.78425 47.3831 5.38058 46.7128C6.68744 45.1893 7.98975 43.7137 9.34008 42.2427C10.6859 40.8198 12.0842 39.3533 13.4826 37.8868C14.8193 36.5599 16.2085 35.1895 17.5452 33.8625C18.8819 32.5356 20.3147 31.2177 21.8344 30.0049C22.2023 29.7006 22.6708 29.3574 23.1484 28.9181C23.6214 28.5268 24.1768 28.2887 24.6272 28.1375C24.9724 28.0733 25.313 28.057 25.544 28.1758C25.7705 28.3425 25.8964 28.5482 25.9697 28.7974C26.043 29.0466 25.9677 29.3301 25.8445 29.6092C25.7854 30.2334 25.5271 30.4027 25.1774 30.515ZM64.4567 39.8507C64.8019 39.7865 65.0854 39.8618 65.2684 39.976C65.4514 40.0902 65.5818 40.2479 65.6071 40.4925C65.637 40.6891 65.6577 40.9817 65.587 41.2173C65.5117 41.5009 65.4845 41.789 65.3612 42.068C65.6104 41.9946 65.8595 41.9213 66.1087 41.848C66.3579 41.7747 66.5545 41.7448 66.7076 41.6624C67.4117 41.3899 68.1202 41.0694 68.8814 40.7053C69.7956 40.2589 70.7625 39.769 71.7248 39.3271C72.6871 38.8853 73.6448 38.4914 74.6415 38.1981C74.9387 38.1293 75.2313 38.1086 75.5194 38.1358C75.8075 38.1631 76.0911 38.2384 76.2695 38.4006C76.448 38.5628 76.5259 38.764 76.5512 39.0086C76.5284 39.2487 76.3526 39.5712 75.9321 39.919C75.7219 40.0929 75.5162 40.2187 75.3196 40.2486C75.123 40.2784 74.8738 40.3518 74.6726 40.4296C74.2749 40.5373 73.8245 40.6885 73.4222 40.8442C73.0199 41 72.5696 41.1512 72.1628 41.3549C71.3056 41.7098 70.4439 42.1128 69.6347 42.4723C68.773 42.8752 67.9593 43.2827 67.1456 43.6902C66.6382 43.9329 66.0782 44.219 65.4702 44.5006C64.8096 44.8257 64.2198 44.9152 63.7396 44.8698C63.408 44.79 63.129 44.6667 63.0031 44.461C62.8773 44.2553 62.8039 44.0062 62.8312 43.7181C62.8104 43.4254 62.8857 43.1418 62.961 42.8583C63.0362 42.5747 63.1641 42.2477 63.2393 41.9641C63.1569 41.811 63.0745 41.6579 63.0972 41.4178C63.1154 41.2257 63.1381 40.9856 63.2523 40.8026C63.3665 40.6197 63.5288 40.4412 63.691 40.2628C63.9103 39.9928 64.164 39.8715 64.4567 39.8507ZM78.3356 29.8756C78.3084 30.1637 78.2377 30.3993 78.1235 30.5822C78.0092 30.7652 77.8996 30.9002 77.6984 30.9781C77.5453 31.0605 77.3441 31.1383 77.0995 31.1636C76.8549 31.1889 76.6628 31.1708 76.4227 31.1481C76.3728 31.6762 76.1353 32.1382 75.7057 32.5821C75.3858 32.8909 74.9699 33.1907 74.3619 33.4723C73.7539 33.7539 73.1549 33.9395 72.4645 34.068C71.7741 34.1965 71.1363 34.2814 70.455 34.3139C69.7736 34.3463 69.25 34.2483 68.7309 34.1023C68.2598 33.9609 67.9464 33.689 67.7381 33.3302C67.5298 32.9713 67.6278 32.4477 67.9315 31.7982C68.1781 31.2401 68.5596 30.7918 69.0281 30.4485C69.4966 30.1052 70.0611 29.7711 70.6166 29.5329C71.22 29.2993 71.7709 29.1092 72.4133 28.9762C73.0077 28.8387 73.5495 28.7446 74.0388 28.694C74.3314 28.6732 74.6766 28.609 75.1659 28.5584C75.6551 28.5078 76.1353 28.5532 76.5675 28.5941C76.9996 28.6349 77.4227 28.7719 77.7452 28.9477C78.2072 29.1852 78.372 29.4915 78.3356 29.8756ZM74.9666 31.6886C75.1334 31.4621 75.0692 31.1169 74.8427 30.9501C74.7947 30.9456 74.7467 30.941 74.6987 30.9365C74.6506 30.932 74.6506 30.932 74.6026 30.9274C74.31 30.9482 73.9213 30.9599 73.4846 30.967C73.0479 30.9741 72.5587 31.0247 72.0649 31.1234C71.5711 31.222 71.1207 31.3732 70.6704 31.5244C70.2201 31.6755 69.9002 31.9844 69.6809 32.2543C69.6763 32.3024 69.6763 32.3024 69.6238 32.3458C69.6536 32.5424 69.832 32.7047 70.1682 32.7365C70.4997 32.8163 70.8884 32.8046 71.2771 32.7929C71.6658 32.7812 72.107 32.7261 72.5002 32.6664C72.8935 32.6067 73.1426 32.5334 73.2867 32.547C73.5884 32.4302 73.8421 32.3089 74.0913 32.2356C74.4456 32.0753 74.7999 31.915 74.9666 31.6886Z" fill="#640B0B"/>
<path d="M74.2768 40.0046C73.9634 39.7327 73.8421 39.479 73.8739 39.1429C73.9011 38.8548 74.0244 38.5758 74.2346 38.4019C74.4494 38.18 74.7032 38.0586 74.9569 37.9373C75.2541 37.8685 75.4941 37.8912 75.7251 38.01C76.0431 38.2338 76.5187 38.3273 77.152 38.2903C77.7853 38.2533 78.4186 38.2163 79.0565 38.1313C79.6898 38.0943 80.2751 38.0528 80.7507 38.1463C81.2309 38.1917 81.5488 38.4156 81.6565 38.8133C82.7194 38.3325 83.7823 37.8517 84.8406 37.4189C85.8989 36.9861 86.9047 36.5968 87.7664 36.1938C88.1687 36.0381 88.6236 35.8389 89.179 35.6008C89.7345 35.3626 90.2899 35.1245 90.8408 34.9344C91.3963 34.6962 91.9426 34.5541 92.489 34.412C93.0353 34.2699 93.5246 34.2193 93.9087 34.2557C94.1008 34.2738 94.2838 34.388 94.4188 34.4977C94.5492 34.6554 94.5836 34.804 94.6134 35.0006C94.6433 35.1972 94.6251 35.3893 94.5063 35.6203C94.4402 35.8078 94.2734 36.0343 94.0632 36.2082C93.7478 36.469 93.3935 36.6293 92.9477 36.7324C92.5065 36.7876 92.1567 36.8998 91.807 37.0121C89.9577 37.6123 88.0993 38.3085 86.2363 39.0528C84.3689 39.8451 82.5448 40.6899 80.7163 41.5827C80.4626 41.7041 80.1037 41.9124 79.6878 42.2121C79.2719 42.5119 78.8605 42.7637 78.4056 42.9629C77.9988 43.1666 77.5965 43.3224 77.2513 43.3866C76.906 43.4508 76.627 43.3275 76.4622 43.0213C76.3409 42.7676 76.3156 42.5229 76.3863 42.2874C76.457 42.0518 76.5803 41.7728 76.7951 41.5509C77.0099 41.329 77.2247 41.1071 77.4875 40.8897C77.7503 40.6723 78.0085 40.503 78.3103 40.3862C78.0176 40.4069 77.6769 40.4232 77.2883 40.4348C76.8996 40.4465 76.5064 40.5062 76.1222 40.4699C75.7336 40.4815 75.3494 40.4452 75.0133 40.4134C74.7297 40.3381 74.4507 40.2148 74.2768 40.0046Z" fill="#640B0B"/>
<path d="M115.759 18.8819C114.375 20.2043 112.994 21.4787 111.653 22.8537C110.316 24.1806 108.975 25.5556 107.682 26.9351C107.038 27.6009 106.393 28.2666 105.696 28.9758C104.999 29.685 104.351 30.3988 103.702 31.1126C103.053 31.8263 102.399 32.5881 101.842 33.359C101.237 34.1253 100.775 34.9053 100.362 35.6898C101.368 35.3004 102.339 34.7625 103.319 34.1286C104.3 33.4946 105.276 32.9087 106.247 32.3708C106.807 32.0846 107.42 31.755 107.975 31.5169C108.583 31.2352 109.134 31.0451 109.733 30.8596C109.982 30.7862 110.227 30.7609 110.467 30.7836C110.707 30.8064 110.895 30.8725 111.073 31.0348C111.208 31.1444 111.334 31.3501 111.316 31.5422C111.341 31.7868 111.222 32.0178 110.998 32.3358C110.77 32.7017 110.411 32.91 109.961 33.0612C109.515 33.1644 109.113 33.3201 108.758 33.4804C108.002 33.7964 107.245 34.1124 106.523 34.577C105.805 34.9935 105.035 35.4536 104.269 35.8656C103.499 36.3257 102.681 36.7812 101.806 37.3282C100.935 37.8272 100.078 38.1821 99.2432 38.2969C98.3561 38.4553 97.837 38.3093 97.6813 37.907C97.5256 37.5046 97.5755 36.9765 97.8792 36.3269C96.9033 36.9129 95.9319 37.4508 94.908 38.0322C93.8886 38.5655 92.8303 38.9983 91.8861 39.2481C91.589 39.3169 91.2963 39.3377 91.0562 39.315C90.8161 39.2923 90.5806 39.2215 90.4022 39.0593C90.0887 38.7874 89.9765 38.4377 90.1089 38.0626C90.2412 37.6876 90.4262 37.269 90.7506 36.9122C91.0796 36.5073 91.4521 36.1549 91.8725 35.8071C92.293 35.4593 92.6564 35.203 92.9192 34.9857C93.9522 34.3082 95.0676 33.7839 96.2175 33.4083C97.3627 33.0806 98.4944 32.897 99.5553 32.9489C99.6033 32.9534 99.6033 32.9534 99.6994 32.9625C99.8045 32.8755 99.9051 32.8366 100.006 32.7977C100.106 32.7588 100.207 32.7198 100.259 32.6763C100.703 32.0885 101.141 31.5486 101.575 31.0568C102.014 30.5169 102.443 30.0731 102.825 29.6247C103.207 29.1763 103.531 28.8194 103.851 28.5106C104.123 28.1972 104.338 27.9752 104.447 27.8403C105.688 26.5042 106.924 25.2162 108.16 23.9282C109.396 22.6402 110.676 21.4047 111.96 20.1213C112.337 19.7209 112.819 19.2336 113.363 18.6068C113.907 17.98 114.428 17.5932 114.935 17.3506C115.237 17.2338 115.486 17.1604 115.674 17.2266C115.861 17.2928 115.996 17.4025 116.127 17.5602C116.204 17.7613 116.234 17.9579 116.212 18.198C116.093 18.429 115.974 18.66 115.759 18.8819Z" fill="#640B0B"/>
<path d="M122.617 30.3827C121.183 30.6831 119.745 31.0316 118.259 31.3755C116.773 31.7194 115.354 31.8757 113.952 31.84C113.851 31.879 113.707 31.8653 113.616 31.8082C113.422 32.3228 113.132 32.8283 112.75 33.2767C112.412 33.7776 111.983 34.2214 111.562 34.5692C111.137 34.965 110.673 35.2603 110.214 35.5075C109.754 35.7547 109.261 35.8533 108.876 35.817C108.492 35.7807 108.165 35.6528 107.996 35.3946C107.827 35.1363 107.71 34.8346 107.746 34.4504C107.734 34.0618 107.819 33.6822 108.004 33.2636C108.189 32.8451 108.369 32.4746 108.645 32.1132C109.032 31.6168 109.557 31.182 110.122 30.8479C110.686 30.5137 111.281 30.3761 111.809 30.4261C111.893 30.0465 112.17 29.6851 112.586 29.3853C113.001 29.0855 113.395 29.0258 113.813 29.2108C114.188 29.3432 114.664 29.4366 115.144 29.482C115.629 29.4794 116.113 29.4768 116.655 29.3828C117.197 29.2887 117.691 29.19 118.233 29.096C118.731 28.9493 119.225 28.8507 119.719 28.7521C120.26 28.658 120.859 28.4724 121.506 28.2914C122.153 28.1103 122.743 28.0208 123.271 28.0708C123.559 28.098 123.786 28.2648 123.864 28.4659C123.99 28.6716 123.967 28.9117 123.94 29.1998C123.869 29.4354 123.746 29.7144 123.531 29.9363C123.22 30.1491 122.962 30.3185 122.617 30.3827ZM110.059 33.555C110.164 33.4681 110.318 33.3856 110.567 33.3123C110.58 33.1683 110.59 33.0722 110.603 32.9282C110.551 32.9717 110.445 33.0586 110.34 33.1456C110.231 33.2805 110.126 33.3675 110.059 33.555Z" fill="#640B0B"/>
<path d="M122.878 28.1305C123.319 28.0753 123.655 28.1071 123.79 28.2168C123.973 28.331 124.051 28.5321 124.029 28.7722C124.006 29.0123 123.931 29.2959 123.803 29.6229C123.675 29.9499 123.504 30.2244 123.328 30.5469C123.883 30.3088 124.443 30.0226 125.003 29.7365C125.563 29.4503 126.075 29.1596 126.578 28.965C126.985 28.7612 127.44 28.562 127.952 28.2713C128.411 28.0241 128.923 27.7334 129.382 27.4862C129.89 27.2435 130.345 27.0443 130.848 26.8496C131.35 26.655 131.796 26.5518 132.185 26.5401C132.43 26.5148 132.67 26.5375 132.857 26.6037C133.045 26.6699 133.228 26.7841 133.354 26.9898C133.562 27.3486 133.526 27.7328 133.293 28.1468C133.901 27.8652 134.509 27.5836 135.121 27.2539C135.734 26.9243 136.342 26.6427 136.95 26.3611C137.558 26.0795 138.161 25.8459 138.765 25.6123C139.364 25.4267 140.006 25.2937 140.6 25.1561C140.994 25.0964 141.33 25.1282 141.609 25.2515C142.071 25.489 142.24 25.7473 142.213 26.0354C142.181 26.3715 142.101 26.7031 141.964 27.1261C142.367 26.9704 142.821 26.7712 143.333 26.4805C143.797 26.1853 144.209 25.9335 144.515 25.7687C145.333 25.3132 146.204 24.8142 147.022 24.3587C147.845 23.8552 148.702 23.5003 149.555 23.1933C149.804 23.12 150.049 23.0947 150.337 23.122C150.625 23.1492 150.812 23.2154 150.995 23.3296C151.178 23.4438 151.261 23.597 151.286 23.8416C151.316 24.0382 151.241 24.3218 151.012 24.6877C150.845 24.9142 150.635 25.0881 150.382 25.2094C150.128 25.3308 149.826 25.4476 149.524 25.5644C149.223 25.6811 148.925 25.7499 148.576 25.8622C148.274 25.979 148.025 26.0523 147.824 26.1302C147.316 26.3728 146.752 26.707 146.082 27.1281C145.412 27.5492 144.743 27.9704 144.025 28.3869C143.307 28.8035 142.647 29.1286 141.947 29.3531C141.248 29.5776 140.658 29.6672 140.191 29.4777C139.72 29.3362 139.503 29.0734 139.487 28.7328C139.471 28.3921 139.507 28.008 139.596 27.5803C139.054 27.6744 138.46 27.812 137.804 28.0891C137.196 28.3707 136.592 28.6043 136.037 28.8424C135.682 29.0027 135.276 29.2064 134.816 29.4536C134.405 29.7054 133.95 29.9046 133.49 30.1518C133.031 30.399 132.624 30.6028 132.174 30.754C131.719 30.9532 131.321 31.0609 130.928 31.1206C130.487 31.1757 130.151 31.1439 129.881 30.9246C129.476 30.5956 129.425 30.1064 129.772 29.5094C129.068 29.7819 128.403 30.155 127.738 30.5281C127.073 30.9012 126.408 31.2743 125.743 31.6474C125.078 32.0205 124.417 32.3456 123.761 32.6227C123.105 32.8997 122.454 33.1288 121.763 33.2573C121.519 33.2826 121.322 33.3124 121.082 33.2897C120.89 33.2715 120.702 33.2053 120.519 33.0911C120.297 32.8764 120.172 32.6707 120.199 32.3826C120.178 32.0899 120.253 31.8064 120.429 31.4839C120.557 31.1568 120.728 30.8824 120.904 30.5599C121.08 30.2374 121.299 29.9674 121.471 29.693C121.45 29.4003 121.578 29.0733 121.797 28.8033C122.174 28.403 122.485 28.1902 122.878 28.1305Z" fill="#640B0B"/>
<path d="M162.996 29.1158C162.54 28.2975 162.425 27.4631 162.656 26.5644C162.886 25.6657 163.261 24.7806 163.779 23.9092C164.345 23.0423 164.96 22.1799 165.762 21.3837C166.516 20.583 167.261 19.8783 167.949 19.2652C169.912 17.4645 172.005 15.8216 174.128 14.3752C176.304 12.8854 178.47 11.4917 180.724 10.203C182.929 8.90979 185.179 7.66915 187.462 6.5771C189.702 5.4325 191.976 4.43648 194.294 3.49303C195.352 3.06023 196.459 2.63198 197.561 2.25174C198.662 1.87151 199.76 1.53929 200.9 1.25963C201.246 1.19539 201.643 1.08768 202.094 0.936497C202.544 0.785311 203.033 0.734703 203.474 0.679552C203.964 0.628943 204.396 0.669825 204.775 0.754182C205.203 0.843082 205.521 1.06695 205.782 1.38231C206.043 1.69766 206.15 2.09543 206.162 2.48411C206.174 2.87279 206.133 3.30494 206.048 3.68454C205.96 4.11215 205.823 4.53522 205.638 4.95374C205.453 5.37227 205.272 5.74278 205.145 6.06982C204.603 7.18134 204.014 8.28833 203.382 9.34275C202.749 10.3972 202.068 11.4471 201.436 12.5015C199.855 14.8712 199.069 16.008 197.536 18.3823C199.327 18.4063 201.112 18.4783 202.855 18.4978C204.592 18.5653 206.378 18.6373 208.159 18.7574C208.399 18.7801 208.591 18.7983 208.827 18.869C209.062 18.9397 209.25 19.0059 209.428 19.1681C209.611 19.2824 209.689 19.4835 209.767 19.6847C209.797 19.8813 209.822 20.1259 209.699 20.4049C209.58 20.6359 209.365 20.8578 209.112 20.9792C208.858 21.1005 208.613 21.1258 208.321 21.1466C208.033 21.1193 207.74 21.1401 207.408 21.0603C207.12 21.033 206.832 21.0058 206.64 20.9876C202.401 20.7319 200.327 20.6326 196.07 20.569C195.503 21.4359 194.937 22.3028 194.37 23.1697C193.804 24.0366 193.286 24.908 192.762 25.8275C192.477 26.2849 192.239 26.7469 192.002 27.2089C191.765 27.6709 191.575 28.1375 191.477 28.6611C191.331 29.1802 191.103 29.5462 190.696 29.7499C190.289 29.9537 189.887 30.1094 189.45 30.1166C189.009 30.1717 188.529 30.1263 188.048 30.0809C187.568 30.0354 187.141 29.9465 186.857 29.8713C184.627 29.3697 182.412 28.724 180.266 27.8428C178.117 27.0096 176.129 25.998 174.247 24.8994C173.924 24.7236 173.563 24.4472 173.162 24.0702C172.762 23.6932 172.41 23.3207 172.158 22.9093C171.906 22.4979 171.851 22.0567 171.892 21.6245C171.981 21.1969 172.358 20.7966 173.066 20.476C173.828 20.112 174.671 19.9011 175.506 19.7863C176.34 19.6714 177.223 19.5611 178.009 19.4417C179.088 19.3016 180.215 19.166 181.338 19.0784C182.46 18.9908 183.539 18.8506 184.71 18.7676C186.418 18.6385 188.121 18.5574 189.772 18.5198C191.471 18.4867 193.169 18.4536 194.868 18.4205C195.32 17.7366 195.549 17.3706 196.001 16.6867C196.791 15.5019 197.534 14.3125 198.324 13.1276C199.11 11.9908 199.852 10.8014 200.595 9.61202C200.942 9.01505 201.341 8.37461 201.693 7.72962C202.045 7.08464 202.445 6.4442 202.748 5.79467C202.929 5.42416 203.166 4.96216 203.461 4.40867C203.755 3.85517 203.977 3.05251 203.894 2.89937C203.807 2.79425 203.13 2.77868 202.685 2.88185C202.243 2.937 201.75 3.03562 201.299 3.18681C200.849 3.33799 200.403 3.44116 199.948 3.64037C199.546 3.79609 199.144 3.95182 198.794 4.06408C197.644 4.43977 196.49 4.86348 195.388 5.24371C194.282 5.67197 193.171 6.14824 192.06 6.62451C189.637 7.65491 187.253 8.78589 184.908 10.0174C182.563 11.249 180.252 12.6292 177.98 14.1099C176.952 14.7393 175.967 15.4213 174.934 16.0987C173.901 16.7761 172.911 17.5061 171.913 18.3321C170.919 19.1101 169.968 19.9407 169.013 20.8192C168.11 21.6543 167.247 22.59 166.522 23.5873C166.251 23.9008 166.027 24.2187 165.803 24.5366C165.579 24.8546 165.399 25.2251 165.218 25.5956C165.038 25.9661 164.958 26.2977 164.926 26.6338C164.894 26.9699 164.959 27.3152 165.075 27.6169C165.24 27.9232 165.261 28.2158 165.133 28.5428C165.005 28.8699 164.839 29.0963 164.528 29.3092C164.265 29.5265 163.968 29.5953 163.675 29.6161C163.387 29.5888 163.161 29.4221 162.996 29.1158ZM193.454 20.5638C191.563 20.5787 189.625 20.589 187.725 20.7C185.829 20.7629 183.929 20.8739 182.02 21.0808C180.994 21.1775 179.967 21.2742 178.989 21.3754C177.962 21.4721 176.979 21.6213 175.992 21.8186C175.249 21.9905 174.903 22.0548 174.208 22.2312C174.469 22.5466 174.835 22.775 175.345 23.017C175.807 23.2545 176.178 23.4349 176.457 23.5582C177.145 23.9625 177.886 24.3233 178.632 24.636C179.377 24.9488 180.123 25.2616 180.869 25.5743C181.662 25.8916 182.456 26.2089 183.258 26.4302C184.056 26.6995 184.855 26.9688 185.705 27.1946C185.893 27.2608 186.128 27.3315 186.46 27.4114C186.739 27.5346 187.07 27.6145 187.45 27.6988C187.782 27.7786 188.161 27.863 188.497 27.8948C188.834 27.9266 189.122 27.9538 189.419 27.8851C189.592 27.0778 189.957 26.2888 190.419 25.5089C190.88 24.7289 191.385 24.0015 191.837 23.3176C192.378 22.2061 192.721 21.6571 193.454 20.5638Z" fill="#640B0B"/>
<path d="M212.882 24.1457C212.498 24.1094 212.175 23.9335 211.958 23.6708C211.745 23.3599 211.58 23.0537 211.559 22.761C211.539 22.4684 211.614 22.1848 211.785 21.9103C211.952 21.6839 212.254 21.5671 212.734 21.6125C213.118 21.6488 213.44 21.8247 213.658 22.0875C213.875 22.3503 214.04 22.6566 214.056 22.9972C214.072 23.3379 213.997 23.6215 213.83 23.8479C213.616 24.0698 213.314 24.1866 212.882 24.1457Z" fill="#640B0B"/>
</svg>